<mxfile host="app.diagrams.net" agent="Mozilla/5.0 (Macintosh; Intel Mac OS X 10_15_7) AppleWebKit/537.36 (KHTML, like Gecko) Chrome/132.0.0.0 Safari/537.36" version="26.0.10">
  <diagram name="Page-1" id="hfIHiFBhWX3r9MyFgIvM">
    <mxGraphModel dx="1464" dy="775" grid="1" gridSize="10" guides="1" tooltips="1" connect="1" arrows="1" fold="1" page="1" pageScale="1" pageWidth="3000" pageHeight="3000" math="0" shadow="0">
      <root>
        <mxCell id="0" />
        <mxCell id="1" parent="0" />
        <mxCell id="R7CpkMBYs9IcnFuV_0Kb-2" value="&lt;u&gt;FarmerID&lt;/u&gt;" style="ellipse;whiteSpace=wrap;html=1;" parent="1" vertex="1">
          <mxGeometry x="700.5" y="850" width="70" height="30" as="geometry" />
        </mxCell>
        <mxCell id="msOKPYgTfIJrn5Mlygqg-5" value="" style="endArrow=none;html=1;rounded=0;exitX=0.614;exitY=0.992;exitDx=0;exitDy=0;exitPerimeter=0;" parent="1" source="R7CpkMBYs9IcnFuV_0Kb-2" target="msOKPYgTfIJrn5Mlygqg-42" edge="1">
          <mxGeometry width="50" height="50" relative="1" as="geometry">
            <mxPoint x="780.5" y="880" as="sourcePoint" />
            <mxPoint x="812.5" y="900" as="targetPoint" />
          </mxGeometry>
        </mxCell>
        <mxCell id="msOKPYgTfIJrn5Mlygqg-7" value="Name" style="ellipse;whiteSpace=wrap;html=1;" parent="1" vertex="1">
          <mxGeometry x="730.5" y="810" width="60" height="30" as="geometry" />
        </mxCell>
        <mxCell id="msOKPYgTfIJrn5Mlygqg-9" value="" style="endArrow=none;html=1;rounded=0;exitX=0.595;exitY=0.975;exitDx=0;exitDy=0;exitPerimeter=0;" parent="1" source="msOKPYgTfIJrn5Mlygqg-7" target="msOKPYgTfIJrn5Mlygqg-42" edge="1">
          <mxGeometry width="50" height="50" relative="1" as="geometry">
            <mxPoint x="820.5" y="870" as="sourcePoint" />
            <mxPoint x="834.5000000000002" y="900" as="targetPoint" />
          </mxGeometry>
        </mxCell>
        <mxCell id="msOKPYgTfIJrn5Mlygqg-12" value="Location" style="ellipse;whiteSpace=wrap;html=1;" parent="1" vertex="1">
          <mxGeometry x="910.5" y="830" width="62" height="30" as="geometry" />
        </mxCell>
        <mxCell id="msOKPYgTfIJrn5Mlygqg-13" value="" style="endArrow=none;html=1;rounded=0;" parent="1" source="msOKPYgTfIJrn5Mlygqg-12" target="msOKPYgTfIJrn5Mlygqg-42" edge="1">
          <mxGeometry width="50" height="50" relative="1" as="geometry">
            <mxPoint x="907.5" y="853" as="sourcePoint" />
            <mxPoint x="869.26" y="903.24" as="targetPoint" />
          </mxGeometry>
        </mxCell>
        <mxCell id="msOKPYgTfIJrn5Mlygqg-14" value="Contact Information" style="ellipse;whiteSpace=wrap;html=1;" parent="1" vertex="1">
          <mxGeometry x="850.5" y="780" width="70" height="40" as="geometry" />
        </mxCell>
        <mxCell id="msOKPYgTfIJrn5Mlygqg-15" value="" style="endArrow=none;html=1;rounded=0;exitX=0.595;exitY=0.975;exitDx=0;exitDy=0;exitPerimeter=0;" parent="1" source="msOKPYgTfIJrn5Mlygqg-42" edge="1">
          <mxGeometry width="50" height="50" relative="1" as="geometry">
            <mxPoint x="948.5" y="790" as="sourcePoint" />
            <mxPoint x="843.3015267175574" y="900" as="targetPoint" />
          </mxGeometry>
        </mxCell>
        <mxCell id="msOKPYgTfIJrn5Mlygqg-20" value="" style="endArrow=none;html=1;rounded=0;exitX=0.566;exitY=0.895;exitDx=0;exitDy=0;exitPerimeter=0;" parent="1" target="msOKPYgTfIJrn5Mlygqg-44" edge="1">
          <mxGeometry width="50" height="50" relative="1" as="geometry">
            <mxPoint x="1149.6200000000001" y="865.8" as="sourcePoint" />
            <mxPoint x="1172" y="890" as="targetPoint" />
          </mxGeometry>
        </mxCell>
        <mxCell id="msOKPYgTfIJrn5Mlygqg-21" value="Location" style="ellipse;whiteSpace=wrap;html=1;" parent="1" vertex="1">
          <mxGeometry x="1159" y="790" width="70" height="40" as="geometry" />
        </mxCell>
        <mxCell id="msOKPYgTfIJrn5Mlygqg-22" value="" style="endArrow=none;html=1;rounded=0;exitX=0.595;exitY=0.975;exitDx=0;exitDy=0;exitPerimeter=0;entryX=0.568;entryY=0;entryDx=0;entryDy=0;entryPerimeter=0;" parent="1" source="msOKPYgTfIJrn5Mlygqg-21" edge="1">
          <mxGeometry width="50" height="50" relative="1" as="geometry">
            <mxPoint x="1108" y="780" as="sourcePoint" />
            <mxPoint x="1199.984" y="890" as="targetPoint" />
          </mxGeometry>
        </mxCell>
        <mxCell id="msOKPYgTfIJrn5Mlygqg-23" value="&lt;u&gt;FarmID&lt;/u&gt;" style="ellipse;whiteSpace=wrap;html=1;" parent="1" vertex="1">
          <mxGeometry x="1229" y="820" width="70" height="40" as="geometry" />
        </mxCell>
        <mxCell id="msOKPYgTfIJrn5Mlygqg-24" value="" style="endArrow=none;html=1;rounded=0;exitX=0.595;exitY=0.975;exitDx=0;exitDy=0;exitPerimeter=0;entryX=0.75;entryY=0;entryDx=0;entryDy=0;" parent="1" source="msOKPYgTfIJrn5Mlygqg-23" edge="1">
          <mxGeometry width="50" height="50" relative="1" as="geometry">
            <mxPoint x="1118" y="790" as="sourcePoint" />
            <mxPoint x="1216" y="890" as="targetPoint" />
          </mxGeometry>
        </mxCell>
        <mxCell id="msOKPYgTfIJrn5Mlygqg-25" value="FarmSize" style="ellipse;whiteSpace=wrap;html=1;" parent="1" vertex="1">
          <mxGeometry x="770.5" y="780" width="70" height="30" as="geometry" />
        </mxCell>
        <mxCell id="msOKPYgTfIJrn5Mlygqg-26" value="" style="endArrow=none;html=1;rounded=0;exitX=0.595;exitY=0.975;exitDx=0;exitDy=0;exitPerimeter=0;entryX=0.372;entryY=0.013;entryDx=0;entryDy=0;entryPerimeter=0;" parent="1" source="msOKPYgTfIJrn5Mlygqg-25" target="msOKPYgTfIJrn5Mlygqg-42" edge="1">
          <mxGeometry width="50" height="50" relative="1" as="geometry">
            <mxPoint x="968.5" y="810" as="sourcePoint" />
            <mxPoint x="834.5" y="890" as="targetPoint" />
          </mxGeometry>
        </mxCell>
        <mxCell id="msOKPYgTfIJrn5Mlygqg-29" value="Name" style="ellipse;whiteSpace=wrap;html=1;" parent="1" vertex="1">
          <mxGeometry x="1110" y="830" width="70" height="40" as="geometry" />
        </mxCell>
        <mxCell id="msOKPYgTfIJrn5Mlygqg-31" value="Name" style="ellipse;whiteSpace=wrap;html=1;" parent="1" vertex="1">
          <mxGeometry x="2169" y="1140" width="70" height="40" as="geometry" />
        </mxCell>
        <mxCell id="msOKPYgTfIJrn5Mlygqg-32" value="" style="endArrow=none;html=1;rounded=0;exitX=0.5;exitY=1;exitDx=0;exitDy=0;entryX=0.804;entryY=0.034;entryDx=0;entryDy=0;entryPerimeter=0;" parent="1" source="msOKPYgTfIJrn5Mlygqg-31" target="msOKPYgTfIJrn5Mlygqg-60" edge="1">
          <mxGeometry width="50" height="50" relative="1" as="geometry">
            <mxPoint x="2188" y="1200" as="sourcePoint" />
            <mxPoint x="2202" y="1230" as="targetPoint" />
          </mxGeometry>
        </mxCell>
        <mxCell id="msOKPYgTfIJrn5Mlygqg-33" value="&lt;u&gt;CropID&lt;/u&gt;" style="ellipse;whiteSpace=wrap;html=1;" parent="1" vertex="1">
          <mxGeometry x="1480.5" y="794.58" width="70" height="40" as="geometry" />
        </mxCell>
        <mxCell id="msOKPYgTfIJrn5Mlygqg-34" value="" style="endArrow=none;html=1;rounded=0;exitX=0.595;exitY=0.975;exitDx=0;exitDy=0;exitPerimeter=0;entryX=0.15;entryY=0.013;entryDx=0;entryDy=0;entryPerimeter=0;" parent="1" source="msOKPYgTfIJrn5Mlygqg-33" target="msOKPYgTfIJrn5Mlygqg-48" edge="1">
          <mxGeometry width="50" height="50" relative="1" as="geometry">
            <mxPoint x="1648" y="640" as="sourcePoint" />
            <mxPoint x="1575.928" y="888.76" as="targetPoint" />
          </mxGeometry>
        </mxCell>
        <mxCell id="msOKPYgTfIJrn5Mlygqg-36" value="" style="endArrow=none;html=1;rounded=0;exitX=0.414;exitY=0.923;exitDx=0;exitDy=0;exitPerimeter=0;entryX=1;entryY=0.25;entryDx=0;entryDy=0;" parent="1" source="msOKPYgTfIJrn5Mlygqg-52" target="msOKPYgTfIJrn5Mlygqg-48" edge="1">
          <mxGeometry width="50" height="50" relative="1" as="geometry">
            <mxPoint x="1681.65" y="849" as="sourcePoint" />
            <mxPoint x="1653" y="880" as="targetPoint" />
          </mxGeometry>
        </mxCell>
        <mxCell id="msOKPYgTfIJrn5Mlygqg-37" value="Name" style="ellipse;whiteSpace=wrap;html=1;" parent="1" vertex="1">
          <mxGeometry x="1550.5" y="820" width="70" height="40" as="geometry" />
        </mxCell>
        <mxCell id="msOKPYgTfIJrn5Mlygqg-43" value="" style="endArrow=none;html=1;rounded=0;exitX=0.595;exitY=0.975;exitDx=0;exitDy=0;exitPerimeter=0;" parent="1" source="msOKPYgTfIJrn5Mlygqg-14" target="msOKPYgTfIJrn5Mlygqg-42" edge="1">
          <mxGeometry width="50" height="50" relative="1" as="geometry">
            <mxPoint x="892.5" y="819" as="sourcePoint" />
            <mxPoint x="843.3015267175574" y="900" as="targetPoint" />
          </mxGeometry>
        </mxCell>
        <mxCell id="msOKPYgTfIJrn5Mlygqg-62" style="edgeStyle=orthogonalEdgeStyle;rounded=0;orthogonalLoop=1;jettySize=auto;html=1;endArrow=none;startFill=0;" parent="1" source="msOKPYgTfIJrn5Mlygqg-153" target="msOKPYgTfIJrn5Mlygqg-44" edge="1">
          <mxGeometry relative="1" as="geometry">
            <mxPoint x="1040" y="900" as="sourcePoint" />
          </mxGeometry>
        </mxCell>
        <mxCell id="msOKPYgTfIJrn5Mlygqg-42" value="Farmers" style="whiteSpace=wrap;html=1;align=center;" parent="1" vertex="1">
          <mxGeometry x="790" y="880" width="100" height="40" as="geometry" />
        </mxCell>
        <mxCell id="msOKPYgTfIJrn5Mlygqg-44" value="Farms" style="whiteSpace=wrap;html=1;align=center;" parent="1" vertex="1">
          <mxGeometry x="1150" y="880" width="100" height="40" as="geometry" />
        </mxCell>
        <mxCell id="msOKPYgTfIJrn5Mlygqg-49" value="" style="endArrow=none;html=1;rounded=0;exitX=0.595;exitY=0.975;exitDx=0;exitDy=0;exitPerimeter=0;" parent="1" source="msOKPYgTfIJrn5Mlygqg-37" target="msOKPYgTfIJrn5Mlygqg-48" edge="1">
          <mxGeometry width="50" height="50" relative="1" as="geometry">
            <mxPoint x="1572" y="849" as="sourcePoint" />
            <mxPoint x="1586" y="876" as="targetPoint" />
          </mxGeometry>
        </mxCell>
        <mxCell id="msOKPYgTfIJrn5Mlygqg-48" value="Crops" style="whiteSpace=wrap;html=1;align=center;" parent="1" vertex="1">
          <mxGeometry x="1550.5" y="880" width="90" height="40" as="geometry" />
        </mxCell>
        <mxCell id="msOKPYgTfIJrn5Mlygqg-52" value="Type" style="ellipse;shape=doubleEllipse;margin=3;whiteSpace=wrap;html=1;align=center;" parent="1" vertex="1">
          <mxGeometry x="1610" y="810" width="100" height="40" as="geometry" />
        </mxCell>
        <mxCell id="msOKPYgTfIJrn5Mlygqg-55" value="" style="endArrow=none;html=1;rounded=0;exitX=1;exitY=1;exitDx=0;exitDy=0;entryX=0;entryY=0.25;entryDx=0;entryDy=0;" parent="1" source="msOKPYgTfIJrn5Mlygqg-73" target="msOKPYgTfIJrn5Mlygqg-48" edge="1">
          <mxGeometry width="50" height="50" relative="1" as="geometry">
            <mxPoint x="1500.0000000000002" y="905" as="sourcePoint" />
            <mxPoint x="1550" y="910" as="targetPoint" />
          </mxGeometry>
        </mxCell>
        <mxCell id="msOKPYgTfIJrn5Mlygqg-56" value="Consumers" style="whiteSpace=wrap;html=1;align=center;" parent="1" vertex="1">
          <mxGeometry x="730" y="1450" width="100" height="40" as="geometry" />
        </mxCell>
        <mxCell id="msOKPYgTfIJrn5Mlygqg-58" value="&amp;nbsp;Nutritionalinformation" style="whiteSpace=wrap;html=1;align=center;" parent="1" vertex="1">
          <mxGeometry x="1930" y="879.5799999999999" width="160" height="40" as="geometry" />
        </mxCell>
        <mxCell id="msOKPYgTfIJrn5Mlygqg-61" value="" style="edgeStyle=orthogonalEdgeStyle;rounded=0;orthogonalLoop=1;jettySize=auto;html=1;endArrow=none;startFill=0;" parent="1" source="msOKPYgTfIJrn5Mlygqg-185" target="msOKPYgTfIJrn5Mlygqg-60" edge="1">
          <mxGeometry relative="1" as="geometry" />
        </mxCell>
        <mxCell id="msOKPYgTfIJrn5Mlygqg-59" value="Food Distribution" style="whiteSpace=wrap;html=1;align=center;" parent="1" vertex="1">
          <mxGeometry x="2540" y="1220" width="100" height="40" as="geometry" />
        </mxCell>
        <mxCell id="msOKPYgTfIJrn5Mlygqg-60" value="Distributors" style="whiteSpace=wrap;html=1;align=center;" parent="1" vertex="1">
          <mxGeometry x="2084" y="1220" width="100" height="40" as="geometry" />
        </mxCell>
        <mxCell id="msOKPYgTfIJrn5Mlygqg-63" value="HouseholdSize" style="ellipse;whiteSpace=wrap;html=1;align=center;" parent="1" vertex="1">
          <mxGeometry x="640" y="1350" width="90" height="40" as="geometry" />
        </mxCell>
        <mxCell id="msOKPYgTfIJrn5Mlygqg-64" value="&lt;u&gt;DistributionID&lt;/u&gt;" style="ellipse;whiteSpace=wrap;html=1;" parent="1" vertex="1">
          <mxGeometry x="2460" y="1165" width="70" height="40" as="geometry" />
        </mxCell>
        <mxCell id="msOKPYgTfIJrn5Mlygqg-65" value="" style="endArrow=none;html=1;rounded=0;entryX=0.25;entryY=0;entryDx=0;entryDy=0;" parent="1" source="msOKPYgTfIJrn5Mlygqg-64" target="msOKPYgTfIJrn5Mlygqg-59" edge="1">
          <mxGeometry width="50" height="50" relative="1" as="geometry">
            <mxPoint x="2118" y="950" as="sourcePoint" />
            <mxPoint x="2530" y="1160" as="targetPoint" />
          </mxGeometry>
        </mxCell>
        <mxCell id="msOKPYgTfIJrn5Mlygqg-66" value="DistributionAreas" style="ellipse;whiteSpace=wrap;html=1;" parent="1" vertex="1">
          <mxGeometry x="1950" y="1205" width="110" height="40" as="geometry" />
        </mxCell>
        <mxCell id="msOKPYgTfIJrn5Mlygqg-67" value="" style="endArrow=none;html=1;rounded=0;exitX=0.987;exitY=0.648;exitDx=0;exitDy=0;entryX=0;entryY=0.5;entryDx=0;entryDy=0;exitPerimeter=0;" parent="1" source="msOKPYgTfIJrn5Mlygqg-66" target="msOKPYgTfIJrn5Mlygqg-60" edge="1">
          <mxGeometry width="50" height="50" relative="1" as="geometry">
            <mxPoint x="1928" y="960" as="sourcePoint" />
            <mxPoint x="1942" y="990" as="targetPoint" />
          </mxGeometry>
        </mxCell>
        <mxCell id="msOKPYgTfIJrn5Mlygqg-68" value="Contact Info" style="ellipse;whiteSpace=wrap;html=1;" parent="1" vertex="1">
          <mxGeometry x="2090" y="1160" width="70" height="40" as="geometry" />
        </mxCell>
        <mxCell id="msOKPYgTfIJrn5Mlygqg-69" value="" style="endArrow=none;html=1;rounded=0;exitX=0.5;exitY=1;exitDx=0;exitDy=0;entryX=0.5;entryY=0;entryDx=0;entryDy=0;" parent="1" source="msOKPYgTfIJrn5Mlygqg-68" target="msOKPYgTfIJrn5Mlygqg-60" edge="1">
          <mxGeometry width="50" height="50" relative="1" as="geometry">
            <mxPoint x="1938" y="970" as="sourcePoint" />
            <mxPoint x="1952" y="1000" as="targetPoint" />
          </mxGeometry>
        </mxCell>
        <mxCell id="msOKPYgTfIJrn5Mlygqg-70" value="&lt;u&gt;DistributorID&lt;/u&gt;" style="ellipse;whiteSpace=wrap;html=1;" parent="1" vertex="1">
          <mxGeometry x="2020" y="1125.42" width="70" height="40" as="geometry" />
        </mxCell>
        <mxCell id="msOKPYgTfIJrn5Mlygqg-71" value="" style="endArrow=none;html=1;rounded=0;exitX=0.595;exitY=0.975;exitDx=0;exitDy=0;exitPerimeter=0;entryX=0.167;entryY=-0.003;entryDx=0;entryDy=0;entryPerimeter=0;" parent="1" source="msOKPYgTfIJrn5Mlygqg-70" target="msOKPYgTfIJrn5Mlygqg-60" edge="1">
          <mxGeometry width="50" height="50" relative="1" as="geometry">
            <mxPoint x="2048" y="1235.42" as="sourcePoint" />
            <mxPoint x="2197.7" y="1474.58" as="targetPoint" />
          </mxGeometry>
        </mxCell>
        <mxCell id="msOKPYgTfIJrn5Mlygqg-73" value="Name" style="ellipse;whiteSpace=wrap;html=1;" parent="1" vertex="1">
          <mxGeometry x="1418" y="830" width="70" height="40" as="geometry" />
        </mxCell>
        <mxCell id="msOKPYgTfIJrn5Mlygqg-75" value="Destinations" style="ellipse;whiteSpace=wrap;html=1;" parent="1" vertex="1">
          <mxGeometry x="2510" y="1125.42" width="70" height="40" as="geometry" />
        </mxCell>
        <mxCell id="msOKPYgTfIJrn5Mlygqg-76" value="" style="endArrow=none;html=1;rounded=0;exitX=0.5;exitY=1;exitDx=0;exitDy=0;" parent="1" source="msOKPYgTfIJrn5Mlygqg-75" edge="1">
          <mxGeometry width="50" height="50" relative="1" as="geometry">
            <mxPoint x="2518" y="1070" as="sourcePoint" />
            <mxPoint x="2580" y="1220" as="targetPoint" />
          </mxGeometry>
        </mxCell>
        <mxCell id="msOKPYgTfIJrn5Mlygqg-77" value="DistributionData" style="ellipse;whiteSpace=wrap;html=1;" parent="1" vertex="1">
          <mxGeometry x="2640" y="1165" width="100" height="40" as="geometry" />
        </mxCell>
        <mxCell id="msOKPYgTfIJrn5Mlygqg-78" value="" style="endArrow=none;html=1;rounded=0;entryX=0.896;entryY=0.034;entryDx=0;entryDy=0;exitX=0.5;exitY=1;exitDx=0;exitDy=0;entryPerimeter=0;" parent="1" source="msOKPYgTfIJrn5Mlygqg-77" target="msOKPYgTfIJrn5Mlygqg-59" edge="1">
          <mxGeometry width="50" height="50" relative="1" as="geometry">
            <mxPoint x="2540" y="1000" as="sourcePoint" />
            <mxPoint x="2542" y="1110" as="targetPoint" />
          </mxGeometry>
        </mxCell>
        <mxCell id="msOKPYgTfIJrn5Mlygqg-79" value="Quantity" style="ellipse;whiteSpace=wrap;html=1;" parent="1" vertex="1">
          <mxGeometry x="2580" y="1120" width="70" height="40" as="geometry" />
        </mxCell>
        <mxCell id="msOKPYgTfIJrn5Mlygqg-80" value="" style="endArrow=none;html=1;rounded=0;exitX=0.5;exitY=1;exitDx=0;exitDy=0;entryX=0.659;entryY=-0.058;entryDx=0;entryDy=0;entryPerimeter=0;" parent="1" source="msOKPYgTfIJrn5Mlygqg-79" target="msOKPYgTfIJrn5Mlygqg-59" edge="1">
          <mxGeometry width="50" height="50" relative="1" as="geometry">
            <mxPoint x="2588" y="1180" as="sourcePoint" />
            <mxPoint x="2602" y="1210" as="targetPoint" />
          </mxGeometry>
        </mxCell>
        <mxCell id="msOKPYgTfIJrn5Mlygqg-90" value="" style="endArrow=none;html=1;rounded=0;entryX=0.479;entryY=0.973;entryDx=0;entryDy=0;entryPerimeter=0;exitX=0;exitY=0;exitDx=0;exitDy=0;" parent="1" source="msOKPYgTfIJrn5Mlygqg-56" target="msOKPYgTfIJrn5Mlygqg-63" edge="1">
          <mxGeometry width="50" height="50" relative="1" as="geometry">
            <mxPoint x="710" y="1429.6799999999998" as="sourcePoint" />
            <mxPoint x="707.2" y="1370" as="targetPoint" />
          </mxGeometry>
        </mxCell>
        <mxCell id="msOKPYgTfIJrn5Mlygqg-92" value="Location" style="ellipse;whiteSpace=wrap;html=1;align=center;" parent="1" vertex="1">
          <mxGeometry x="820" y="1390" width="70" height="30" as="geometry" />
        </mxCell>
        <mxCell id="msOKPYgTfIJrn5Mlygqg-93" value="" style="endArrow=none;html=1;rounded=0;entryX=0.479;entryY=0.973;entryDx=0;entryDy=0;entryPerimeter=0;exitX=1;exitY=0;exitDx=0;exitDy=0;" parent="1" source="msOKPYgTfIJrn5Mlygqg-56" target="msOKPYgTfIJrn5Mlygqg-92" edge="1">
          <mxGeometry width="50" height="50" relative="1" as="geometry">
            <mxPoint x="720" y="1439.6799999999998" as="sourcePoint" />
            <mxPoint x="717.2" y="1380" as="targetPoint" />
          </mxGeometry>
        </mxCell>
        <mxCell id="msOKPYgTfIJrn5Mlygqg-94" value="&lt;u&gt;ConsumerID&lt;/u&gt;" style="ellipse;whiteSpace=wrap;html=1;align=center;" parent="1" vertex="1">
          <mxGeometry x="590" y="1410" width="100" height="40" as="geometry" />
        </mxCell>
        <mxCell id="msOKPYgTfIJrn5Mlygqg-95" value="" style="endArrow=none;html=1;rounded=0;entryX=0.479;entryY=0.973;entryDx=0;entryDy=0;entryPerimeter=0;exitX=-0.01;exitY=0.408;exitDx=0;exitDy=0;exitPerimeter=0;" parent="1" source="msOKPYgTfIJrn5Mlygqg-56" target="msOKPYgTfIJrn5Mlygqg-94" edge="1">
          <mxGeometry width="50" height="50" relative="1" as="geometry">
            <mxPoint x="730" y="1449.6799999999998" as="sourcePoint" />
            <mxPoint x="727.2" y="1390" as="targetPoint" />
          </mxGeometry>
        </mxCell>
        <mxCell id="msOKPYgTfIJrn5Mlygqg-96" value="Name" style="ellipse;whiteSpace=wrap;html=1;align=center;" parent="1" vertex="1">
          <mxGeometry x="720" y="1390" width="60" height="30" as="geometry" />
        </mxCell>
        <mxCell id="msOKPYgTfIJrn5Mlygqg-97" value="" style="endArrow=none;html=1;rounded=0;entryX=0.479;entryY=0.973;entryDx=0;entryDy=0;entryPerimeter=0;" parent="1" source="msOKPYgTfIJrn5Mlygqg-56" target="msOKPYgTfIJrn5Mlygqg-96" edge="1">
          <mxGeometry width="50" height="50" relative="1" as="geometry">
            <mxPoint x="798" y="1448" as="sourcePoint" />
            <mxPoint x="737.2" y="1400" as="targetPoint" />
          </mxGeometry>
        </mxCell>
        <mxCell id="msOKPYgTfIJrn5Mlygqg-98" value="Contact Information" style="ellipse;whiteSpace=wrap;html=1;align=center;" parent="1" vertex="1">
          <mxGeometry x="750" y="1350" width="100" height="40" as="geometry" />
        </mxCell>
        <mxCell id="msOKPYgTfIJrn5Mlygqg-99" value="" style="endArrow=none;html=1;rounded=0;entryX=0.479;entryY=0.973;entryDx=0;entryDy=0;entryPerimeter=0;exitX=0.75;exitY=0;exitDx=0;exitDy=0;" parent="1" source="msOKPYgTfIJrn5Mlygqg-56" target="msOKPYgTfIJrn5Mlygqg-98" edge="1">
          <mxGeometry width="50" height="50" relative="1" as="geometry">
            <mxPoint x="826" y="1448" as="sourcePoint" />
            <mxPoint x="857.2" y="1380" as="targetPoint" />
          </mxGeometry>
        </mxCell>
        <mxCell id="msOKPYgTfIJrn5Mlygqg-101" value="&lt;u&gt;&lt;font style=&quot;font-size: 10px;&quot;&gt;ConsumptionID&lt;/font&gt;&lt;/u&gt;" style="ellipse;whiteSpace=wrap;html=1;align=center;" parent="1" vertex="1">
          <mxGeometry x="895" y="1430" width="80" height="40" as="geometry" />
        </mxCell>
        <mxCell id="msOKPYgTfIJrn5Mlygqg-102" value="" style="endArrow=none;html=1;rounded=0;entryX=0.479;entryY=0.973;entryDx=0;entryDy=0;entryPerimeter=0;" parent="1" target="msOKPYgTfIJrn5Mlygqg-101" edge="1">
          <mxGeometry width="50" height="50" relative="1" as="geometry">
            <mxPoint x="967.5" y="1490" as="sourcePoint" />
            <mxPoint x="664.7" y="1450" as="targetPoint" />
          </mxGeometry>
        </mxCell>
        <mxCell id="msOKPYgTfIJrn5Mlygqg-103" value="Quantity" style="ellipse;whiteSpace=wrap;html=1;align=center;" parent="1" vertex="1">
          <mxGeometry x="990" y="1380" width="70" height="30" as="geometry" />
        </mxCell>
        <mxCell id="msOKPYgTfIJrn5Mlygqg-104" value="" style="endArrow=none;html=1;rounded=0;entryX=0.479;entryY=0.973;entryDx=0;entryDy=0;entryPerimeter=0;" parent="1" target="msOKPYgTfIJrn5Mlygqg-103" edge="1">
          <mxGeometry width="50" height="50" relative="1" as="geometry">
            <mxPoint x="1009.5807911828383" y="1490" as="sourcePoint" />
            <mxPoint x="647.2" y="1450" as="targetPoint" />
          </mxGeometry>
        </mxCell>
        <mxCell id="msOKPYgTfIJrn5Mlygqg-105" value="ComsumptionDate" style="ellipse;whiteSpace=wrap;html=1;align=center;" parent="1" vertex="1">
          <mxGeometry x="880" y="1530" width="110" height="40" as="geometry" />
        </mxCell>
        <mxCell id="msOKPYgTfIJrn5Mlygqg-106" value="" style="endArrow=none;html=1;rounded=0;entryX=0.679;entryY=0.052;entryDx=0;entryDy=0;entryPerimeter=0;exitX=0.416;exitY=0.873;exitDx=0;exitDy=0;exitPerimeter=0;" parent="1" source="msOKPYgTfIJrn5Mlygqg-187" target="msOKPYgTfIJrn5Mlygqg-105" edge="1">
          <mxGeometry width="50" height="50" relative="1" as="geometry">
            <mxPoint x="875" y="1620" as="sourcePoint" />
            <mxPoint x="777.2" y="1550" as="targetPoint" />
          </mxGeometry>
        </mxCell>
        <mxCell id="msOKPYgTfIJrn5Mlygqg-113" value="AmountPerServing" style="ellipse;whiteSpace=wrap;html=1;" parent="1" vertex="1">
          <mxGeometry x="2040" y="789.5799999999999" width="120" height="45" as="geometry" />
        </mxCell>
        <mxCell id="msOKPYgTfIJrn5Mlygqg-114" value="" style="endArrow=none;html=1;rounded=0;exitX=0.5;exitY=1;exitDx=0;exitDy=0;entryX=0.82;entryY=0.018;entryDx=0;entryDy=0;entryPerimeter=0;" parent="1" source="msOKPYgTfIJrn5Mlygqg-113" target="msOKPYgTfIJrn5Mlygqg-58" edge="1">
          <mxGeometry width="50" height="50" relative="1" as="geometry">
            <mxPoint x="1702" y="888.5799999999999" as="sourcePoint" />
            <mxPoint x="2013" y="882.5799999999999" as="targetPoint" />
          </mxGeometry>
        </mxCell>
        <mxCell id="msOKPYgTfIJrn5Mlygqg-116" value="" style="endArrow=none;html=1;rounded=0;exitX=0.647;exitY=1.024;exitDx=0;exitDy=0;exitPerimeter=0;" parent="1" source="msOKPYgTfIJrn5Mlygqg-119" target="msOKPYgTfIJrn5Mlygqg-58" edge="1">
          <mxGeometry width="50" height="50" relative="1" as="geometry">
            <mxPoint x="1962" y="828.5799999999999" as="sourcePoint" />
            <mxPoint x="1719" y="930.5799999999999" as="targetPoint" />
          </mxGeometry>
        </mxCell>
        <mxCell id="msOKPYgTfIJrn5Mlygqg-117" value="NutritionId" style="ellipse;whiteSpace=wrap;html=1;" parent="1" vertex="1">
          <mxGeometry x="1860" y="824.5799999999999" width="70" height="35" as="geometry" />
        </mxCell>
        <mxCell id="msOKPYgTfIJrn5Mlygqg-118" value="" style="endArrow=none;html=1;rounded=0;exitX=0.595;exitY=0.975;exitDx=0;exitDy=0;exitPerimeter=0;entryX=0.096;entryY=0.001;entryDx=0;entryDy=0;entryPerimeter=0;" parent="1" source="msOKPYgTfIJrn5Mlygqg-117" target="msOKPYgTfIJrn5Mlygqg-58" edge="1">
          <mxGeometry width="50" height="50" relative="1" as="geometry">
            <mxPoint x="1922" y="853.0799999999999" as="sourcePoint" />
            <mxPoint x="1929" y="885.0799999999999" as="targetPoint" />
          </mxGeometry>
        </mxCell>
        <mxCell id="msOKPYgTfIJrn5Mlygqg-119" value="Nutrient" style="ellipse;shape=doubleEllipse;margin=3;whiteSpace=wrap;html=1;align=center;" parent="1" vertex="1">
          <mxGeometry x="1890" y="784.5799999999999" width="100" height="40" as="geometry" />
        </mxCell>
        <mxCell id="msOKPYgTfIJrn5Mlygqg-120" value="FarmSustainability" style="whiteSpace=wrap;html=1;align=center;" parent="1" vertex="1">
          <mxGeometry x="1335" y="719.9999999999999" width="100" height="40" as="geometry" />
        </mxCell>
        <mxCell id="msOKPYgTfIJrn5Mlygqg-121" value="SustainablilityPractices" style="whiteSpace=wrap;html=1;align=center;" parent="1" vertex="1">
          <mxGeometry x="564" y="1030" width="146" height="50" as="geometry" />
        </mxCell>
        <mxCell id="msOKPYgTfIJrn5Mlygqg-124" value="FarmSustainablityID" style="ellipse;whiteSpace=wrap;html=1;" parent="1" vertex="1">
          <mxGeometry x="1250" y="629.9999999999999" width="140" height="40" as="geometry" />
        </mxCell>
        <mxCell id="msOKPYgTfIJrn5Mlygqg-125" value="" style="endArrow=none;html=1;rounded=0;exitX=0.5;exitY=1;exitDx=0;exitDy=0;entryX=0.355;entryY=-0.002;entryDx=0;entryDy=0;entryPerimeter=0;" parent="1" source="msOKPYgTfIJrn5Mlygqg-124" target="msOKPYgTfIJrn5Mlygqg-120" edge="1">
          <mxGeometry width="50" height="50" relative="1" as="geometry">
            <mxPoint x="1168" y="529.9999999999999" as="sourcePoint" />
            <mxPoint x="1144" y="550.9999999999999" as="targetPoint" />
          </mxGeometry>
        </mxCell>
        <mxCell id="msOKPYgTfIJrn5Mlygqg-127" value="" style="endArrow=none;html=1;rounded=0;exitX=0.5;exitY=1;exitDx=0;exitDy=0;entryX=0.932;entryY=0;entryDx=0;entryDy=0;entryPerimeter=0;" parent="1" source="msOKPYgTfIJrn5Mlygqg-134" target="msOKPYgTfIJrn5Mlygqg-121" edge="1">
          <mxGeometry width="50" height="50" relative="1" as="geometry">
            <mxPoint x="684" y="830" as="sourcePoint" />
            <mxPoint x="644" y="871" as="targetPoint" />
          </mxGeometry>
        </mxCell>
        <mxCell id="msOKPYgTfIJrn5Mlygqg-128" value="Name" style="ellipse;whiteSpace=wrap;html=1;" parent="1" vertex="1">
          <mxGeometry x="559" y="930" width="70" height="40" as="geometry" />
        </mxCell>
        <mxCell id="msOKPYgTfIJrn5Mlygqg-129" value="" style="endArrow=none;html=1;rounded=0;exitX=0.5;exitY=1;exitDx=0;exitDy=0;" parent="1" source="msOKPYgTfIJrn5Mlygqg-128" target="msOKPYgTfIJrn5Mlygqg-121" edge="1">
          <mxGeometry width="50" height="50" relative="1" as="geometry">
            <mxPoint x="678" y="860" as="sourcePoint" />
            <mxPoint x="654" y="881" as="targetPoint" />
          </mxGeometry>
        </mxCell>
        <mxCell id="msOKPYgTfIJrn5Mlygqg-130" value="Description" style="ellipse;whiteSpace=wrap;html=1;" parent="1" vertex="1">
          <mxGeometry x="644" y="940" width="70" height="40" as="geometry" />
        </mxCell>
        <mxCell id="msOKPYgTfIJrn5Mlygqg-131" value="" style="endArrow=none;html=1;rounded=0;exitX=0.5;exitY=1;exitDx=0;exitDy=0;" parent="1" source="msOKPYgTfIJrn5Mlygqg-130" target="msOKPYgTfIJrn5Mlygqg-121" edge="1">
          <mxGeometry width="50" height="50" relative="1" as="geometry">
            <mxPoint x="688" y="870" as="sourcePoint" />
            <mxPoint x="664" y="891" as="targetPoint" />
          </mxGeometry>
        </mxCell>
        <mxCell id="msOKPYgTfIJrn5Mlygqg-132" value="&lt;u&gt;PracticeID&lt;/u&gt;" style="ellipse;whiteSpace=wrap;html=1;" parent="1" vertex="1">
          <mxGeometry x="480" y="970" width="70" height="40" as="geometry" />
        </mxCell>
        <mxCell id="msOKPYgTfIJrn5Mlygqg-133" value="" style="endArrow=none;html=1;rounded=0;exitX=0.5;exitY=1;exitDx=0;exitDy=0;entryX=0;entryY=0;entryDx=0;entryDy=0;" parent="1" source="msOKPYgTfIJrn5Mlygqg-132" target="msOKPYgTfIJrn5Mlygqg-121" edge="1">
          <mxGeometry width="50" height="50" relative="1" as="geometry">
            <mxPoint x="499" y="999" as="sourcePoint" />
            <mxPoint x="475" y="1020" as="targetPoint" />
          </mxGeometry>
        </mxCell>
        <mxCell id="msOKPYgTfIJrn5Mlygqg-134" value="Impact" style="ellipse;shape=doubleEllipse;margin=3;whiteSpace=wrap;html=1;align=center;" parent="1" vertex="1">
          <mxGeometry x="725" y="940" width="100" height="40" as="geometry" />
        </mxCell>
        <mxCell id="msOKPYgTfIJrn5Mlygqg-135" value="ImplementaionDate" style="ellipse;whiteSpace=wrap;html=1;" parent="1" vertex="1">
          <mxGeometry x="1360" y="669.9999999999999" width="120" height="40" as="geometry" />
        </mxCell>
        <mxCell id="msOKPYgTfIJrn5Mlygqg-136" value="" style="endArrow=none;html=1;rounded=0;exitX=0.5;exitY=1;exitDx=0;exitDy=0;entryX=0.678;entryY=0.037;entryDx=0;entryDy=0;entryPerimeter=0;" parent="1" source="msOKPYgTfIJrn5Mlygqg-135" target="msOKPYgTfIJrn5Mlygqg-120" edge="1">
          <mxGeometry width="50" height="50" relative="1" as="geometry">
            <mxPoint x="1178" y="539.9999999999999" as="sourcePoint" />
            <mxPoint x="1400" y="716.9999999999999" as="targetPoint" />
          </mxGeometry>
        </mxCell>
        <mxCell id="msOKPYgTfIJrn5Mlygqg-138" value="" style="endArrow=none;html=1;rounded=0;exitX=0;exitY=1;exitDx=0;exitDy=0;entryX=1;entryY=0.5;entryDx=0;entryDy=0;" parent="1" source="msOKPYgTfIJrn5Mlygqg-140" target="msOKPYgTfIJrn5Mlygqg-120" edge="1">
          <mxGeometry width="50" height="50" relative="1" as="geometry">
            <mxPoint x="1515" y="689.9999999999999" as="sourcePoint" />
            <mxPoint x="1391" y="739.9999999999999" as="targetPoint" />
          </mxGeometry>
        </mxCell>
        <mxCell id="msOKPYgTfIJrn5Mlygqg-140" value="Notes" style="ellipse;shape=doubleEllipse;margin=3;whiteSpace=wrap;html=1;align=center;" parent="1" vertex="1">
          <mxGeometry x="1500" y="649.9999999999999" width="100" height="40" as="geometry" />
        </mxCell>
        <mxCell id="msOKPYgTfIJrn5Mlygqg-142" value="M" style="text;html=1;align=center;verticalAlign=middle;resizable=0;points=[];autosize=1;strokeColor=none;fillColor=none;" parent="1" vertex="1">
          <mxGeometry x="1120" y="875" width="30" height="30" as="geometry" />
        </mxCell>
        <mxCell id="msOKPYgTfIJrn5Mlygqg-154" value="" style="shape=link;html=1;rounded=0;" parent="1" source="msOKPYgTfIJrn5Mlygqg-42" target="msOKPYgTfIJrn5Mlygqg-153" edge="1">
          <mxGeometry relative="1" as="geometry">
            <mxPoint x="894" y="900" as="sourcePoint" />
            <mxPoint x="979.714285714286" y="907.1428571428573" as="targetPoint" />
          </mxGeometry>
        </mxCell>
        <mxCell id="msOKPYgTfIJrn5Mlygqg-153" value="Owns" style="shape=rhombus;perimeter=rhombusPerimeter;whiteSpace=wrap;html=1;align=center;" parent="1" vertex="1">
          <mxGeometry x="980" y="880" width="80" height="40" as="geometry" />
        </mxCell>
        <mxCell id="msOKPYgTfIJrn5Mlygqg-156" value="1" style="text;html=1;align=center;verticalAlign=middle;resizable=0;points=[];autosize=1;strokeColor=none;fillColor=none;" parent="1" vertex="1">
          <mxGeometry x="890" y="875" width="30" height="30" as="geometry" />
        </mxCell>
        <mxCell id="msOKPYgTfIJrn5Mlygqg-170" value="" style="shape=link;html=1;rounded=0;" parent="1" source="msOKPYgTfIJrn5Mlygqg-166" target="msOKPYgTfIJrn5Mlygqg-58" edge="1">
          <mxGeometry relative="1" as="geometry">
            <mxPoint x="1640" y="899.6399999999999" as="sourcePoint" />
            <mxPoint x="1730" y="899.6399999999999" as="targetPoint" />
          </mxGeometry>
        </mxCell>
        <mxCell id="msOKPYgTfIJrn5Mlygqg-171" value="" style="shape=link;html=1;rounded=0;" parent="1" target="msOKPYgTfIJrn5Mlygqg-166" edge="1">
          <mxGeometry relative="1" as="geometry">
            <mxPoint x="1640" y="899.6399999999999" as="sourcePoint" />
            <mxPoint x="1920" y="899.5799999999999" as="targetPoint" />
          </mxGeometry>
        </mxCell>
        <mxCell id="msOKPYgTfIJrn5Mlygqg-166" value="has" style="shape=rhombus;perimeter=rhombusPerimeter;whiteSpace=wrap;html=1;align=center;" parent="1" vertex="1">
          <mxGeometry x="1740" y="880" width="80" height="40" as="geometry" />
        </mxCell>
        <mxCell id="msOKPYgTfIJrn5Mlygqg-172" value="1" style="text;html=1;align=center;verticalAlign=middle;resizable=0;points=[];autosize=1;strokeColor=none;fillColor=none;" parent="1" vertex="1">
          <mxGeometry x="1892.5" y="874.5799999999999" width="30" height="30" as="geometry" />
        </mxCell>
        <mxCell id="msOKPYgTfIJrn5Mlygqg-173" value="M" style="text;html=1;align=center;verticalAlign=middle;resizable=0;points=[];autosize=1;strokeColor=none;fillColor=none;" parent="1" vertex="1">
          <mxGeometry x="1640" y="874.5799999999999" width="30" height="30" as="geometry" />
        </mxCell>
        <mxCell id="msOKPYgTfIJrn5Mlygqg-179" value="" style="shape=link;html=1;rounded=0;exitX=1;exitY=0.5;exitDx=0;exitDy=0;" parent="1" source="msOKPYgTfIJrn5Mlygqg-44" target="msOKPYgTfIJrn5Mlygqg-176" edge="1">
          <mxGeometry relative="1" as="geometry">
            <mxPoint x="1250" y="900" as="sourcePoint" />
            <mxPoint x="1551" y="900" as="targetPoint" />
          </mxGeometry>
        </mxCell>
        <mxCell id="msOKPYgTfIJrn5Mlygqg-176" value="Produces" style="shape=rhombus;perimeter=rhombusPerimeter;whiteSpace=wrap;html=1;align=center;" parent="1" vertex="1">
          <mxGeometry x="1360" y="930" width="80" height="40" as="geometry" />
        </mxCell>
        <mxCell id="msOKPYgTfIJrn5Mlygqg-180" value="N" style="text;html=1;align=center;verticalAlign=middle;resizable=0;points=[];autosize=1;strokeColor=none;fillColor=none;" parent="1" vertex="1">
          <mxGeometry x="1260" y="879.9999999999999" width="30" height="30" as="geometry" />
        </mxCell>
        <mxCell id="msOKPYgTfIJrn5Mlygqg-181" value="M" style="text;html=1;align=center;verticalAlign=middle;resizable=0;points=[];autosize=1;strokeColor=none;fillColor=none;" parent="1" vertex="1">
          <mxGeometry x="1514" y="889.5799999999999" width="30" height="30" as="geometry" />
        </mxCell>
        <mxCell id="msOKPYgTfIJrn5Mlygqg-184" value="" style="endArrow=none;html=1;rounded=0;" parent="1" source="msOKPYgTfIJrn5Mlygqg-48" target="msOKPYgTfIJrn5Mlygqg-176" edge="1">
          <mxGeometry width="50" height="50" relative="1" as="geometry">
            <mxPoint x="1461.02" y="880" as="sourcePoint" />
            <mxPoint x="1460.004" y="941" as="targetPoint" />
          </mxGeometry>
        </mxCell>
        <mxCell id="msOKPYgTfIJrn5Mlygqg-186" value="" style="edgeStyle=orthogonalEdgeStyle;rounded=0;orthogonalLoop=1;jettySize=auto;html=1;endArrow=none;startFill=0;" parent="1" source="msOKPYgTfIJrn5Mlygqg-59" target="msOKPYgTfIJrn5Mlygqg-185" edge="1">
          <mxGeometry relative="1" as="geometry">
            <mxPoint x="2540" y="1240" as="sourcePoint" />
            <mxPoint x="2184" y="1240" as="targetPoint" />
          </mxGeometry>
        </mxCell>
        <mxCell id="msOKPYgTfIJrn5Mlygqg-185" value="has" style="shape=rhombus;perimeter=rhombusPerimeter;whiteSpace=wrap;html=1;align=center;" parent="1" vertex="1">
          <mxGeometry x="2310" y="1220" width="80" height="40" as="geometry" />
        </mxCell>
        <mxCell id="msOKPYgTfIJrn5Mlygqg-188" value="" style="edgeStyle=orthogonalEdgeStyle;rounded=0;orthogonalLoop=1;jettySize=auto;html=1;exitX=1;exitY=0.5;exitDx=0;exitDy=0;endArrow=none;startFill=0;" parent="1" source="msOKPYgTfIJrn5Mlygqg-56" target="msOKPYgTfIJrn5Mlygqg-187" edge="1">
          <mxGeometry relative="1" as="geometry">
            <mxPoint x="830" y="1470" as="sourcePoint" />
            <mxPoint x="1060" y="1460" as="targetPoint" />
          </mxGeometry>
        </mxCell>
        <mxCell id="FLRagpgcEolgYobjA9km-4" style="edgeStyle=orthogonalEdgeStyle;rounded=0;orthogonalLoop=1;jettySize=auto;html=1;" edge="1" parent="1" source="msOKPYgTfIJrn5Mlygqg-187">
          <mxGeometry relative="1" as="geometry">
            <mxPoint x="1596" y="920" as="targetPoint" />
          </mxGeometry>
        </mxCell>
        <mxCell id="msOKPYgTfIJrn5Mlygqg-187" value="Consume" style="shape=rhombus;perimeter=rhombusPerimeter;whiteSpace=wrap;html=1;align=center;" parent="1" vertex="1">
          <mxGeometry x="950" y="1470" width="80" height="40" as="geometry" />
        </mxCell>
      </root>
    </mxGraphModel>
  </diagram>
</mxfile>
